<svg xmlns="http://www.w3.org/2000/svg" xmlns:xlink="http://www.w3.org/1999/xlink" preserveAspectRatio="xMidYMid" width="208.34" height="13.16" viewBox="0 0 208.34 13.16">
  <defs>
    <style>
      .cls-1 {
        fill: #747474;
        fill-rule: evenodd;
      }
    </style>
  </defs>
  <path d="M205.524,12.970 L204.636,10.333 L200.013,10.333 L199.134,12.970 L196.330,12.970 L201.094,0.173 L203.537,0.173 L208.327,12.970 L205.524,12.970 ZM202.316,3.407 L200.725,8.197 L203.924,8.197 L202.316,3.407 ZM193.271,2.717 C192.875,2.345 192.273,2.159 191.465,2.159 C190.586,2.159 189.928,2.474 189.491,3.104 C189.055,3.734 188.831,4.711 188.819,6.035 L188.819,7.002 C188.819,8.385 189.028,9.396 189.448,10.034 C189.866,10.673 190.527,10.992 191.429,10.992 C192.244,10.992 192.852,10.806 193.253,10.434 C193.654,10.062 193.884,9.486 193.943,8.707 L196.580,8.707 C196.480,10.084 195.972,11.168 195.055,11.959 C194.138,12.750 192.929,13.146 191.429,13.146 C189.789,13.146 188.498,12.594 187.558,11.489 C186.617,10.384 186.147,8.868 186.147,6.941 L186.147,6.158 C186.147,4.928 186.364,3.844 186.798,2.906 C187.231,1.969 187.851,1.250 188.656,0.749 C189.462,0.248 190.398,-0.003 191.465,-0.003 C192.941,-0.003 194.131,0.393 195.033,1.184 C195.935,1.975 196.457,3.085 196.597,4.515 L193.961,4.515 C193.896,3.689 193.666,3.090 193.271,2.717 ZM182.354,0.173 L184.991,0.173 L184.991,12.970 L182.354,12.970 L182.354,0.173 ZM176.337,8.285 L174.236,8.285 L174.236,12.970 L171.600,12.970 L171.600,0.173 L176.354,0.173 C177.866,0.173 179.032,0.510 179.852,1.184 C180.673,1.858 181.083,2.810 181.083,4.040 C181.083,4.913 180.894,5.641 180.516,6.224 C180.138,6.807 179.565,7.272 178.798,7.617 L181.566,12.847 L181.566,12.970 L178.736,12.970 L176.337,8.285 ZM177.932,2.827 C177.589,2.482 177.063,2.309 176.354,2.309 L174.236,2.309 L174.236,6.150 L176.363,6.150 C177.025,6.150 177.538,5.981 177.901,5.644 C178.265,5.307 178.446,4.843 178.446,4.251 C178.446,3.648 178.275,3.173 177.932,2.827 ZM165.275,5.613 L170.337,5.613 L170.337,7.740 L165.275,7.740 L165.275,12.970 L162.638,12.970 L162.638,0.173 L170.970,0.173 L170.970,2.309 L165.275,2.309 L165.275,5.613 ZM158.651,10.333 L154.028,10.333 L153.150,12.970 L150.346,12.970 L155.110,0.173 L157.553,0.173 L162.343,12.970 L159.539,12.970 L158.651,10.333 ZM156.331,3.407 L154.740,8.197 L157.940,8.197 L156.331,3.407 ZM148.495,13.067 C148.079,13.067 147.736,12.942 147.467,12.693 C147.197,12.444 147.062,12.120 147.062,11.722 C147.062,11.317 147.198,10.990 147.471,10.738 C147.743,10.486 148.085,10.360 148.495,10.360 C148.911,10.360 149.255,10.486 149.528,10.738 C149.800,10.990 149.936,11.317 149.936,11.722 C149.936,12.120 149.801,12.444 149.532,12.693 C149.262,12.942 148.917,13.067 148.495,13.067 ZM141.907,5.420 C143.406,5.871 144.499,6.431 145.185,7.099 C145.870,7.767 146.213,8.599 146.213,9.595 C146.213,10.702 145.794,11.571 144.956,12.201 C144.118,12.831 142.990,13.146 141.573,13.146 C140.588,13.146 139.692,12.965 138.883,12.605 C138.074,12.245 137.458,11.751 137.033,11.124 C136.608,10.497 136.396,9.771 136.396,8.945 L139.041,8.945 C139.041,10.357 139.885,11.063 141.573,11.063 C142.200,11.063 142.689,10.935 143.040,10.680 C143.392,10.425 143.568,10.070 143.568,9.613 C143.568,9.114 143.392,8.732 143.040,8.466 C142.689,8.199 142.056,7.918 141.142,7.622 C140.228,7.326 139.504,7.034 138.971,6.747 C137.518,5.962 136.791,4.904 136.791,3.574 C136.791,2.883 136.986,2.266 137.376,1.724 C137.765,1.182 138.325,0.759 139.054,0.454 C139.784,0.150 140.603,-0.003 141.511,-0.003 C142.425,-0.003 143.240,0.163 143.954,0.494 C144.669,0.825 145.224,1.292 145.620,1.896 C146.015,2.499 146.213,3.185 146.213,3.952 L143.576,3.952 C143.576,3.366 143.392,2.911 143.023,2.586 C142.654,2.261 142.135,2.098 141.467,2.098 C140.823,2.098 140.322,2.234 139.964,2.506 C139.607,2.779 139.428,3.138 139.428,3.583 C139.428,3.999 139.637,4.348 140.056,4.629 C140.475,4.910 141.092,5.174 141.907,5.420 ZM131.170,8.461 L128.858,8.461 L128.858,12.970 L126.222,12.970 L126.222,0.173 L131.214,0.173 C132.175,0.173 133.020,0.349 133.749,0.700 C134.479,1.052 135.040,1.552 135.433,2.199 C135.825,2.846 136.021,3.583 136.021,4.409 C136.021,5.663 135.592,6.652 134.734,7.376 C133.875,8.099 132.687,8.461 131.170,8.461 ZM132.805,2.906 C132.436,2.520 131.926,2.321 131.275,2.309 L128.858,2.309 L128.858,6.325 L131.214,6.325 C131.911,6.325 132.443,6.161 132.809,5.833 C133.175,5.505 133.358,5.036 133.358,4.427 C133.358,3.800 133.174,3.293 132.805,2.906 ZM122.042,0.173 L124.678,0.173 L124.678,12.970 L122.042,12.970 L122.042,0.173 ZM117.835,7.486 L112.694,7.486 L112.694,12.970 L110.057,12.970 L110.057,0.173 L112.694,0.173 L112.694,5.358 L117.835,5.358 L117.835,0.173 L120.472,0.173 L120.472,12.970 L117.835,12.970 L117.835,7.486 ZM104.866,5.420 C106.366,5.871 107.459,6.431 108.144,7.099 C108.830,7.767 109.173,8.599 109.173,9.595 C109.173,10.702 108.754,11.571 107.916,12.201 C107.078,12.831 105.950,13.146 104.532,13.146 C103.548,13.146 102.651,12.965 101.843,12.605 C101.034,12.245 100.417,11.751 99.992,11.124 C99.568,10.497 99.355,9.771 99.355,8.945 L102.001,8.945 C102.001,10.357 102.844,11.063 104.532,11.063 C105.159,11.063 105.648,10.935 106.000,10.680 C106.351,10.425 106.527,10.070 106.527,9.613 C106.527,9.114 106.351,8.732 106.000,8.466 C105.648,8.199 105.015,7.918 104.101,7.622 C103.187,7.326 102.464,7.034 101.930,6.747 C100.477,5.962 99.751,4.904 99.751,3.574 C99.751,2.883 99.945,2.266 100.335,1.724 C100.725,1.182 101.284,0.759 102.014,0.454 C102.743,0.150 103.562,-0.003 104.470,-0.003 C105.384,-0.003 106.199,0.163 106.914,0.494 C107.629,0.825 108.184,1.292 108.579,1.896 C108.975,2.499 109.173,3.185 109.173,3.952 L106.536,3.952 C106.536,3.366 106.351,2.911 105.982,2.586 C105.613,2.261 105.094,2.098 104.426,2.098 C103.782,2.098 103.281,2.234 102.924,2.506 C102.566,2.779 102.387,3.138 102.387,3.583 C102.387,3.999 102.597,4.348 103.016,4.629 C103.435,4.910 104.051,5.174 104.866,5.420 ZM94.041,8.285 L91.941,8.285 L91.941,12.970 L89.304,12.970 L89.304,0.173 L94.059,0.173 C95.571,0.173 96.737,0.510 97.557,1.184 C98.377,1.858 98.787,2.810 98.787,4.040 C98.787,4.913 98.598,5.641 98.221,6.224 C97.843,6.807 97.270,7.272 96.502,7.617 L99.271,12.847 L99.271,12.970 L96.441,12.970 L94.041,8.285 ZM95.637,2.827 C95.294,2.482 94.768,2.309 94.059,2.309 L91.941,2.309 L91.941,6.150 L94.068,6.150 C94.730,6.150 95.242,5.981 95.606,5.644 C95.969,5.307 96.151,4.843 96.151,4.251 C96.151,3.648 95.979,3.173 95.637,2.827 ZM85.317,10.333 L80.694,10.333 L79.815,12.970 L77.314,12.970 L77.012,12.970 L69.079,12.970 L69.079,0.173 L71.715,0.173 L71.715,10.852 L77.314,10.852 L77.314,12.158 L81.775,0.173 L84.219,0.173 L89.009,12.970 L86.205,12.970 L85.317,10.333 ZM82.997,3.407 L81.406,8.197 L84.605,8.197 L82.997,3.407 ZM65.483,12.372 C64.654,12.888 63.703,13.146 62.631,13.146 C61.570,13.146 60.624,12.891 59.792,12.381 C58.960,11.871 58.316,11.143 57.858,10.197 C57.401,9.251 57.170,8.162 57.164,6.932 L57.164,6.299 C57.164,5.039 57.391,3.930 57.845,2.972 C58.299,2.014 58.941,1.279 59.770,0.766 C60.599,0.254 61.547,-0.003 62.613,-0.003 C63.680,-0.003 64.627,0.254 65.457,0.766 C66.286,1.279 66.927,2.014 67.381,2.972 C67.835,3.930 68.063,5.036 68.063,6.290 L68.063,6.862 C68.063,8.121 67.840,9.226 67.395,10.175 C66.949,11.124 66.312,11.857 65.483,12.372 ZM65.391,6.281 C65.391,4.940 65.150,3.920 64.670,3.223 C64.190,2.526 63.504,2.177 62.613,2.177 C61.729,2.177 61.046,2.521 60.566,3.210 C60.085,3.898 59.842,4.908 59.836,6.237 L59.836,6.862 C59.836,8.168 60.076,9.182 60.557,9.902 C61.037,10.623 61.729,10.984 62.631,10.984 C63.516,10.984 64.195,10.636 64.670,9.942 C65.145,9.248 65.385,8.236 65.391,6.905 L65.391,6.281 ZM53.511,7.486 L48.370,7.486 L48.370,12.970 L45.733,12.970 L45.733,0.173 L48.370,0.173 L48.370,5.358 L53.511,5.358 L53.511,0.173 L56.148,0.173 L56.148,12.970 L53.511,12.970 L53.511,7.486 ZM41.593,2.717 C41.197,2.345 40.595,2.159 39.786,2.159 C38.908,2.159 38.250,2.474 37.813,3.104 C37.377,3.734 37.153,4.711 37.141,6.035 L37.141,7.002 C37.141,8.385 37.350,9.396 37.769,10.034 C38.188,10.673 38.849,10.992 39.751,10.992 C40.566,10.992 41.174,10.806 41.575,10.434 C41.976,10.062 42.206,9.486 42.265,8.707 L44.902,8.707 C44.802,10.084 44.294,11.168 43.377,11.959 C42.460,12.750 41.251,13.146 39.751,13.146 C38.111,13.146 36.820,12.594 35.880,11.489 C34.939,10.384 34.469,8.868 34.469,6.941 L34.469,6.158 C34.469,4.928 34.686,3.844 35.119,2.906 C35.553,1.969 36.173,1.250 36.978,0.749 C37.784,0.248 38.720,-0.003 39.786,-0.003 C41.263,-0.003 42.452,0.393 43.355,1.184 C44.257,1.975 44.779,3.085 44.919,4.515 L42.282,4.515 C42.218,3.689 41.988,3.090 41.593,2.717 ZM29.665,5.420 C31.165,5.871 32.258,6.431 32.943,7.099 C33.629,7.767 33.972,8.599 33.972,9.595 C33.972,10.702 33.553,11.571 32.715,12.201 C31.877,12.831 30.749,13.146 29.331,13.146 C28.347,13.146 27.450,12.965 26.641,12.605 C25.833,12.245 25.216,11.751 24.791,11.124 C24.366,10.497 24.154,9.771 24.154,8.945 L26.800,8.945 C26.800,10.357 27.643,11.063 29.331,11.063 C29.958,11.063 30.447,10.935 30.799,10.680 C31.150,10.425 31.326,10.070 31.326,9.613 C31.326,9.114 31.150,8.732 30.799,8.466 C30.447,8.199 29.814,7.918 28.900,7.622 C27.986,7.326 27.263,7.034 26.729,6.747 C25.276,5.962 24.550,4.904 24.550,3.574 C24.550,2.883 24.744,2.266 25.134,1.724 C25.524,1.182 26.083,0.759 26.813,0.454 C27.542,0.150 28.361,-0.003 29.269,-0.003 C30.184,-0.003 30.998,0.163 31.713,0.494 C32.428,0.825 32.983,1.292 33.378,1.896 C33.774,2.499 33.972,3.185 33.972,3.952 L31.335,3.952 C31.335,3.366 31.150,2.911 30.781,2.586 C30.412,2.261 29.893,2.098 29.226,2.098 C28.581,2.098 28.080,2.234 27.723,2.506 C27.365,2.779 27.186,3.138 27.186,3.583 C27.186,3.999 27.396,4.348 27.815,4.629 C28.234,4.910 28.850,5.174 29.665,5.420 ZM20.361,12.970 L17.680,12.970 L17.680,8.329 L13.479,0.173 L16.371,0.173 L19.016,5.939 L21.679,0.173 L24.562,0.173 L20.361,8.329 L20.361,12.970 ZM10.802,9.472 L11.066,3.434 L7.611,12.970 L5.801,12.970 L2.356,3.443 L2.619,9.472 L2.619,12.970 L-0.017,12.970 L-0.017,0.173 L3.428,0.173 L6.715,9.454 L9.984,0.173 L13.447,0.173 L13.447,12.970 L10.802,12.970 L10.802,9.472 Z" class="cls-1"/>
</svg>
